<?xml version="1.0" standalone="no"?>
<!DOCTYPE svg PUBLIC "-//W3C//DTD SVG 1.1//EN" "http://www.w3.org/Graphics/SVG/1.1/DTD/svg11.dtd" >
<svg xmlns="http://www.w3.org/2000/svg">
<metadata>Generated by IcoMoon</metadata>
<defs>
<font id="icomoon" horiz-adv-x="1024">
<font-face units-per-em="1024" ascent="960" descent="-64" />
<missing-glyph horiz-adv-x="1024" />
<glyph unicode="&#x20;" horiz-adv-x="512" d="" />
<glyph unicode="&#xe900;" glyph-name="text" d="M96 704c0 17.673 14.327 32 32 32h768c17.674 0 32-14.327 32-32s-14.326-32-32-32h-768c-17.673 0-32 14.326-32 32zM96 192c0 17.674 14.327 32 32 32h768c17.674 0 32-14.326 32-32s-14.326-32-32-32h-768c-17.673 0-32 14.326-32 32zM266.668 448c0 17.674 14.326 32 32 32h597.332c17.674 0 32-14.326 32-32s-14.326-32-32-32h-597.332c-17.674 0-32 14.326-32 32z" />
<glyph unicode="&#xe901;" glyph-name="twitter" d="M607.324 526.406l373.010 433.594h-88.391l-323.885-376.484-258.686 376.484h-298.363l391.184-569.31-391.184-454.69h88.396l342.031 397.58 273.191-397.58h298.363l-405.688 590.406zM486.253 385.674l-354.997 507.782h135.772l624.957-893.939h-135.772l-269.96 386.135z" />
<glyph unicode="&#xe902;" glyph-name="left-chevron" d="M672 96c-8.184 0-16.376 3.128-22.624 9.376l-320 320c-12.504 12.504-12.504 32.752 0 45.248l320 320c12.504 12.504 32.752 12.504 45.248 0s12.504-32.752 0-45.248l-297.376-297.376 297.376-297.376c12.504-12.504 12.504-32.752 0-45.248-6.248-6.248-14.44-9.376-22.624-9.376z" />
<glyph unicode="&#xe903;" glyph-name="search-interface-symbol" d="M1014.294-8.29l-264.38 260.155c69.233 75.219 111.771 174.698 111.771 284.164-0.033 234.168-192.91 423.971-430.854 423.971s-430.821-189.803-430.821-423.971 192.877-423.971 430.821-423.971c102.808 0 197.102 35.56 271.168 94.678l265.406-261.181c12.932-12.74 33.927-12.74 46.859 0 12.962 12.738 12.962 33.415 0.030 46.155zM430.831 177.289c-201.326 0-364.533 160.613-364.533 358.74s163.207 358.74 364.533 358.74c201.328 0 364.533-160.613 364.533-358.74s-163.205-358.74-364.533-358.74z" />
<glyph unicode="&#xe904;" glyph-name="arrow" d="M960 480h-818.72l137.28 137.44c4.783 5.559 7.695 12.847 7.695 20.815 0 17.673-14.327 32-32 32-7.968 0-15.255-2.912-20.857-7.73l0.042 0.035-192-192c-6.091-5.985-9.866-14.31-9.866-23.517 0-1.866 0.155-3.695 0.453-5.476l-0.027 0.193c1.538-6.275 4.614-11.688 8.808-16.008l191.992-191.992c5.904-6.865 14.6-11.185 24.305-11.185 17.673 0 32 14.327 32 32 0 9.705-4.321 18.401-11.143 24.27l-0.042 0.035-136.64 137.12h818.72c17.673 0 32 14.327 32 32s-14.327 32-32 32v0z" />
<glyph unicode="&#xe905;" glyph-name="facebook-app-symbol" d="M591.302-64v467.060h156.71l23.511 182.076h-180.221v116.229c0 52.699 14.574 88.612 90.229 88.612l96.335 0.040v162.855c-16.66 2.165-73.847 7.129-140.407 7.129-138.987 0-234.141-84.837-234.141-240.603v-134.261h-157.185v-182.076h157.185v-467.060h187.983z" />
<glyph unicode="&#xe906;" glyph-name="call" d="M997.13 170.039l-207.261 138.219c-26.302 17.399-61.559 11.674-81.004-13.156l-60.373-77.624c-7.759-10.23-21.863-13.198-33.087-6.963l-11.484 6.331c-38.070 20.751-85.439 46.585-180.879 142.059s-121.326 142.879-142.077 180.879l-6.297 11.484c-6.321 11.222-3.409 25.386 6.825 33.207l77.572 60.355c24.82 19.447 30.553 54.694 13.174 81.004l-138.219 207.261c-17.811 26.792-53.546 34.835-81.12 18.259l-86.669-52.062c-27.232-16.010-47.211-41.938-55.748-72.351-31.209-113.715-7.731-309.97 281.37-599.105 229.974-229.956 401.178-291.797 518.853-291.797 27.082-0.116 54.058 3.407 80.202 10.476 30.419 8.527 56.352 28.508 72.351 55.748l52.114 86.617c16.6 27.58 8.561 63.337-18.243 81.158zM985.97 106.391l-51.994-86.669c-11.488-19.661-30.14-34.117-52.046-40.34-104.978-28.822-288.383-4.949-565.932 272.6s-301.419 460.938-272.598 565.932c6.231 21.933 20.705 40.608 40.39 52.114l86.669 51.994c11.964 7.199 27.474 3.709 35.203-7.917l138.102-207.243c7.547-11.412 5.067-26.708-5.699-35.153l-77.59-60.355c-23.612-18.055-30.355-50.724-15.818-76.653l6.161-11.194c21.809-39.998 48.923-89.757 147.912-188.73 98.989-98.971 148.732-126.087 188.712-147.894l11.21-6.177c25.926-14.536 58.597-7.795 76.653 15.818l60.355 77.59c8.447 10.76 23.736 13.238 35.153 5.699l207.243-138.219c11.634-7.723 15.124-23.241 7.915-35.203zM580.236 789.245c160.138-0.178 289.911-129.953 290.091-290.091 0-9.425 7.639-17.063 17.063-17.063s17.063 7.639 17.063 17.063c-0.198 178.979-145.238 324.022-324.218 324.218-9.425 0-17.063-7.639-17.063-17.063s7.639-17.063 17.063-17.063zM580.236 686.861c103.617-0.122 187.584-84.090 187.706-187.706 0-9.425 7.641-17.063 17.063-17.063 9.425 0 17.063 7.639 17.063 17.063-0.142 122.458-99.377 221.693-221.833 221.833-9.425 0-17.063-7.639-17.063-17.063s7.639-17.063 17.063-17.063zM580.236 584.476c47.097-0.056 85.263-38.222 85.321-85.321 0-9.425 7.641-17.063 17.063-17.063s17.063 7.639 17.063 17.063c-0.076 65.938-53.51 119.374-119.448 119.448-9.425 0-17.063-7.639-17.063-17.063s7.639-17.063 17.063-17.063z" />
<glyph unicode="&#xe907;" glyph-name="check" d="M879.514 718.986c17.916-15.677 19.541-42.987 3.605-60.674l-448.593-497.911c-16.019-17.779-43.523-18.91-60.946-2.509l-259.585 244.378c-16.189 15.241-17.738 40.636-3.849 57.997 15.326 19.157 43.866 21.794 62.106 5.389l201.403-181.158c17.503-15.744 44.45-14.336 60.219 3.145l385.856 427.815c15.612 17.312 42.24 18.882 59.785 3.529z" />
<glyph unicode="&#xe908;" glyph-name="marketing-online" d="M687.755 732.188c-6.624 0-12.096-5.472-12.096-12.096s5.472-11.952 12.096-11.952h247.828c21.024 0 38.305-17.28 38.305-38.305v-542.456c0-21.024-17.28-38.305-38.305-38.305h-847.021c-21.168 0-38.449 17.28-38.449 38.305v542.456c0 21.024 17.28 38.305 38.449 38.305h266.692c6.624 0 11.952 5.328 11.952 11.952s-5.328 12.096-11.952 12.096h-266.692c-34.417 0-62.497-28.080-62.497-62.353v-542.456c0-34.273 28.080-62.353 62.497-62.353h847.021c34.273 0 62.353 28.080 62.353 62.353v542.456c0 34.273-28.080 62.353-62.353 62.353zM38.161 224.437c-6.624 0-12.096-5.328-12.096-11.952s5.472-12.096 12.096-12.096h947.679c6.624 0 12.096 5.472 12.096 12.096s-5.472 11.952-12.096 11.952zM481.688 74.098c1.728 6.336-2.16 12.816-8.496 14.544-6.48 1.584-12.96-2.16-14.688-8.64l-33.553-129.026c-1.728-6.336 2.16-12.96 8.496-14.544 6.48-1.728 12.96 2.16 14.688 8.496zM565.497 80.002c-1.728 6.48-8.208 10.224-14.688 8.64-6.336-1.728-10.224-8.208-8.496-14.544l33.697-129.17c1.584-6.336 8.064-10.224 14.544-8.496 6.336 1.584 10.224 8.208 8.496 14.544zM373.83-39.952c-6.624 0-12.096-5.472-12.096-12.096s5.472-11.952 12.096-11.952h276.484c6.624 0 11.952 5.328 11.952 11.952s-5.328 12.096-11.952 12.096zM477.079 156.755c-6.624 0-11.952-5.328-11.952-12.096 0-6.624 5.328-11.952 11.952-11.952h69.841c6.624 0 11.952 5.328 11.952 11.952 0 6.768-5.328 12.096-11.952 12.096zM367.494 400.695c-33.841-33.697-88.561-33.697-122.402 0.144s-33.841 88.705 0 122.546c4.752 4.752 12.384 4.752 17.136-0.144l105.41-105.41c4.752-4.752 4.752-12.384-0.144-17.136zM306.437 399.399c12.24 0 24.48 3.6 34.993 10.656l-86.977 87.121c-27.936-41.329 1.584-97.778 51.985-97.778zM406.23 410.055l69.553 69.409c4.176 4.32 10.8 4.752 15.552 1.152l185.763-119.666c6.48-4.176 7.488-13.248 1.872-18.72l-69.553-69.553c-4.176-4.32-10.944-4.608-15.552-1.152l-185.907 119.666c-6.48 4.32-7.344 13.536-1.728 18.864zM485.864 455.704l-52.417-52.417 165.891-106.85 52.273 52.417zM577.593 503.801l-71.281-32.833 68.113-43.921c21.168 21.168 22.32 54.433 3.168 76.753zM489.752 489.689l84.529 38.881c4.464 2.592 10.080 2.16 13.968-1.44 36.289-32.257 35.857-88.993-1.008-120.818-1.296-1.008-2.592-2.16-3.888-3.168-3.888-3.456-9.792-4.032-14.4-1.008l-90.577 58.321c-7.344 4.464-8.064 13.68-2.592 19.008 2.88 3.024 6.336 7.2 9.792 8.496zM312.341 655.435l136.658 297.509c3.6 7.92 13.824 9.36 19.584 3.312l332.213-332.213c5.616-5.616 4.752-15.984-4.464-19.728l-301.829-138.674c-4.752-1.872-9.936-0.576-13.248 3.024l-168.627 168.627c-3.744 3.744-4.464 9.504-2.16 13.968zM463.543 927.311l-128.162-278.932 157.394-157.25 278.932 128.162zM321.125 628.795l-62.929-63.073c-10.656-10.512-10.656-27.792 0-38.449l113.474-113.474c10.512-10.512 27.792-10.512 38.305 0l63.073 63.073zM241.204 582.714l71.425 71.425c4.752 4.752 12.24 4.752 16.992 0l168.771-168.771c4.752-4.608 4.752-12.24 0.144-16.992l-71.569-71.569c-19.872-19.872-52.417-19.872-72.289 0l-113.474 113.618c-20.016 19.872-20.016 52.417 0 72.289zM563.481 844.654c22.176 22.176 48.961 35.569 74.593 39.457 57.889 8.928 99.218-32.401 90.433-90.289-3.888-25.632-17.424-52.561-39.601-74.737-4.752-4.752-12.384-4.752-17.136 0l-108.434 108.578c-4.752 4.608-4.752 12.384 0.144 16.992zM641.674 860.494c-17.568-2.736-36.001-11.088-52.561-24.768l90.865-90.865c13.68 16.416 22.032 34.993 24.768 52.417 6.336 42.049-21.168 69.553-63.073 63.217z" />
<glyph unicode="&#xe909;" glyph-name="envelope" d="M938.666 832h-853.332c-47.064 0-85.334-38.27-85.334-85.334v-597.334c0-47.062 38.27-85.332 85.334-85.332h853.334c47.062 0 85.332 38.27 85.332 85.334v597.332c0 47.064-38.27 85.334-85.334 85.334zM85.334 789.334h853.334c3.144 0 5.914-1.146 8.864-1.794-73.878-67.614-318.846-291.718-404.572-368.956-6.708-6.042-17.52-13.25-30.958-13.25s-24.25 7.208-30.98 13.27c-85.718 77.226-330.7 301.342-404.566 368.932 2.956 0.648 5.732 1.798 8.878 1.798zM42.666 149.334v597.332c0 4.18 1.26 7.972 2.388 11.792 56.544-51.752 227.472-208.12 338.304-308.906-110.472-94.894-281.444-256.99-338.438-311.338-1.006 3.628-2.254 7.176-2.254 11.12zM938.666 106.666h-853.332c-3.408 0-6.438 1.188-9.62 1.948 58.894 56.144 230.954 219.172 339.484 312.018 14.148-12.834 27.072-24.536 37.26-33.716 17.584-15.876 38.166-24.25 59.542-24.25s41.958 8.376 59.52 24.23c10.192 9.184 23.126 20.896 37.282 33.736 108.536-92.836 280.572-255.852 339.484-312.018-3.182-0.76-6.208-1.948-9.62-1.948zM981.334 149.334c0-3.942-1.248-7.492-2.252-11.12-57.016 54.376-227.968 216.454-338.438 311.336 110.836 100.786 281.738 257.14 338.302 308.912 1.128-3.82 2.388-7.614 2.388-11.794v-597.334z" />
<glyph unicode="&#xe90a;" glyph-name="instagram" d="M767.994 960h-511.988c-140.784 0-255.994-115.21-255.994-255.994v-512.012c0-140.747 115.21-255.994 255.994-255.994h511.988c140.784 0 255.994 115.247 255.994 255.994v512.012c0 140.784-115.21 255.994-255.994 255.994zM938.652 191.994c0-94.078-76.528-170.658-170.658-170.658h-511.988c-94.090 0-170.658 76.581-170.658 170.658v512.012c0 94.103 76.568 170.658 170.658 170.658h511.988c94.13 0 170.658-76.556 170.658-170.658v-512.012zM853.367 725.343c0-35.345-28.653-63.998-63.998-63.998s-63.998 28.653-63.998 63.998c0 35.345 28.653 63.998 63.998 63.998s63.998-28.653 63.998-63.998zM512 704.006c-141.412 0-255.994-114.595-255.994-255.994 0-141.347 114.582-256.019 255.994-256.019 141.372 0 255.994 114.672 255.994 256.019 0 141.399-114.622 255.994-255.994 255.994zM512 277.329c-94.245 0-170.658 76.413-170.658 170.683s76.413 170.658 170.658 170.658 170.658-76.388 170.658-170.658-76.413-170.683-170.658-170.683z" />
<glyph unicode="&#xe90b;" glyph-name="pinterest" d="M525.92 960c-280.653 0-429.907-179.848-429.907-375.953 0-90.948 50.818-204.361 132.166-240.331 12.353-5.568 19.073-3.2 21.825 8.256 2.432 8.704 13.121 50.626 18.305 70.403 1.6 6.336 0.768 11.841-4.352 17.793-27.009 31.233-48.45 88.132-48.45 141.51 0 136.774 108.741 269.58 293.773 269.58 160.007 0 271.948-103.941 271.948-252.619 0-168.008-88.9-284.237-204.425-284.237-63.939 0-111.557 50.178-96.452 112.261 18.241 73.923 54.018 153.415 54.018 206.729 0 47.81-27.009 87.364-82.18 87.364-65.091 0-117.893-64.451-117.893-150.983 0-54.978 19.457-92.1 19.457-92.1s-64.387-260.108-76.355-308.686c-20.225-82.244 2.752-215.434 4.736-226.89 1.216-6.336 8.32-8.32 12.289-3.136 6.336 8.32 84.164 119.365 105.989 199.625 7.936 29.249 40.514 147.847 40.514 147.847 21.441-38.722 83.332-71.171 149.255-71.171 196.105 0 337.807 172.36 337.807 386.257-0.704 205.065-176.2 358.48-402.066 358.48z" />
<glyph unicode="&#xe90c;" glyph-name="user" d="M504.702 466.735c67.765 0 126.437 24.305 174.39 72.258 47.937 47.945 72.25 106.609 72.25 174.382 0 67.75-24.305 126.422-72.258 174.382-47.953 47.937-106.625 72.242-174.382 72.242-67.773 0-126.437-24.305-174.382-72.25s-72.258-106.617-72.258-174.375c0-67.773 24.312-126.445 72.258-174.39 47.961-47.937 106.633-72.25 174.382-72.25zM372.757 845.321c36.789 36.789 79.945 54.672 131.945 54.672 51.992 0 95.156-17.883 131.953-54.672 36.789-36.797 54.68-79.961 54.68-131.945 0-52-17.891-95.156-54.68-131.953-36.797-36.797-79.961-54.68-131.953-54.68-51.984 0-95.14 17.891-131.945 54.68-36.797 36.789-54.687 79.953-54.687 131.953 0 51.984 17.891 95.148 54.687 131.945zM936.256 172.595c-1.383 19.953-4.18 41.719-8.297 64.703-4.156 23.156-9.508 45.047-15.914 65.055-6.625 20.68-15.617 41.101-26.75 60.672-11.539 20.312-25.102 38-40.32 52.555-15.914 15.227-35.398 27.469-57.93 36.398-22.453 8.883-47.336 13.383-73.953 13.383-10.453 0-20.562-4.289-40.086-17-12.016-7.836-26.070-16.898-41.758-26.922-13.414-8.547-31.586-16.555-54.031-23.805-21.898-7.086-44.133-10.68-66.086-10.68-21.937 0-44.172 3.594-66.086 10.68-22.422 7.242-40.601 15.25-53.992 23.797-15.539 9.93-29.602 18.992-41.797 26.937-19.508 12.711-29.617 17-40.070 17-26.625 0-51.5-4.508-73.945-13.398-22.516-8.914-42.008-21.156-57.937-36.398-15.219-14.562-28.781-32.242-40.312-52.547-11.117-19.57-20.117-39.984-26.742-60.68-6.398-20.008-11.75-41.891-15.906-65.047-4.125-22.953-6.914-44.726-8.297-64.726-1.359-19.555-2.047-39.906-2.047-60.469 0-53.453 16.992-96.726 50.5-128.64 33.094-31.492 76.875-47.461 130.133-47.461h493.062c53.242 0 97.023 15.969 130.125 47.461 33.516 31.891 50.508 75.18 50.508 128.648-0.008 20.633-0.703 40.984-2.070 60.484zM846.444 26.939c-21.867-20.812-50.898-30.93-88.758-30.93h-493.054c-37.867 0-66.898 10.117-88.758 30.922-21.445 20.414-31.867 48.281-31.867 85.172 0 19.187 0.633 38.133 1.898 56.32 1.234 17.844 3.758 37.445 7.5 58.273 3.695 20.57 8.398 39.875 13.992 57.351 5.367 16.758 12.687 33.351 21.766 49.336 8.664 15.234 18.633 28.305 29.633 38.836 10.289 9.852 23.258 17.914 38.539 23.961 14.133 5.594 30.016 8.656 47.258 9.117 2.102-1.117 5.844-3.25 11.906-7.203 12.336-8.039 26.555-17.211 42.273-27.25 17.719-11.297 40.547-21.5 67.82-30.305 27.883-9.016 56.32-13.594 84.547-13.594s56.672 4.578 84.539 13.586c27.297 8.82 50.117 19.016 67.859 30.328 16.086 10.281 29.906 19.187 42.242 27.234 6.062 3.945 9.805 6.086 11.906 7.203 17.25-0.461 33.133-3.523 47.273-9.117 15.273-6.047 28.242-14.117 38.531-23.961 11-10.523 20.969-23.594 29.633-38.844 9.086-15.977 16.414-32.578 21.773-49.32 5.602-17.5 10.312-36.797 14-57.351 3.734-20.867 6.266-40.476 7.5-58.289v-0.016c1.273-18.117 1.914-37.055 1.922-56.297-0.008-36.898-10.43-64.758-31.875-85.164z" />
<glyph unicode="&#xe90d;" glyph-name="linkedin" d="M1023.744-64v0.043h0.256v375.552c0 183.723-39.552 325.248-254.336 325.248-103.253 0-172.544-56.661-200.832-110.379h-2.987v93.227h-203.648v-683.648h212.053v338.517c0 89.131 16.896 175.317 127.275 175.317 108.757 0 110.379-101.717 110.379-181.035v-332.843zM16.896 619.648h212.309v-683.648h-212.309zM122.965 960c-67.883 0-122.965-55.083-122.965-122.965s55.083-124.117 122.965-124.117 122.965 56.235 122.965 124.117c-0.043 67.883-55.125 122.965-122.965 122.965z" />
<glyph unicode="&#xe90e;" glyph-name="right-up" d="M682.833 558.336l-367.232-367.232-60.331 60.331 367.189 367.232h-323.626v85.333h469.333v-469.333h-85.333z" />
<glyph unicode="&#xe90f;" glyph-name="user-experience" d="M832 252.16v601.173c0 58.91-47.756 106.667-106.667 106.667v0h-426.667c-58.91 0-106.667-47.756-106.667-106.667v0-810.667c0-58.91 47.756-106.667 106.667-106.667v0c274.987 0 263.253-3.2 272.213 7.467 19.2 22.613-4.907 32.213-131.2 140.16-4.106 3.504-6.692 8.684-6.692 14.468 0 7.489 4.336 13.965 10.634 17.055l0.112 0.050c9.6 4.907 5.973 4.053 104.107-28.8 2.036-0.711 4.384-1.122 6.827-1.122 11.782 0 21.333 9.551 21.333 21.333 0 0.019 0 0.039 0 0.058v-0.003 277.333c0 11.782 9.551 21.333 21.333 21.333s21.333-9.551 21.333-21.333v0-234.667c0-11.782 9.551-21.333 21.333-21.333s21.333 9.551 21.333 21.333v0 85.333c0 11.782 9.551 21.333 21.333 21.333s21.333-9.551 21.333-21.333v0-85.333c0-11.782 9.551-21.333 21.333-21.333s21.333 9.551 21.333 21.333v0 64c0 11.782 9.551 21.333 21.333 21.333s21.333-9.551 21.333-21.333v0-64c0-11.782 9.551-21.333 21.333-21.333s21.333 9.551 21.333 21.333v0 42.667c0 11.782 9.551 21.333 21.333 21.333s21.333-9.551 21.333-21.333v0-234.667c0-11.782 9.551-21.333 21.333-21.333s21.333 9.551 21.333 21.333v0 234.667c-0.102 35.269-28.717 63.82-64 63.82-7.647 0-14.981-1.341-21.779-3.801l0.446 0.141zM234.667 853.333c0 35.346 28.654 64 64 64v0h426.667c35.346 0 64-28.654 64-64v0-21.333h-554.667zM496.853-21.333h-198.187c-35.346 0-64 28.654-64 64v0 21.333h166.187c6.827-10.453 2.773-5.76 96-85.333zM736.64 268.8c-11.538 17.951-31.408 29.672-54.015 29.672-7.632 0-14.951-1.336-21.738-3.786l0.446 0.141v89.173c0 35.346-28.654 64-64 64s-64-28.654-64-64v0h-192c-11.782 0-21.333-9.551-21.333-21.333s9.551-21.333 21.333-21.333v0h192v-205.013l-61.44 21.333c-5.804 1.995-12.491 3.147-19.447 3.147-31.4 0-57.317-23.473-61.162-53.829l-0.031-0.305h-156.587v682.667h554.667v-515.84c-6.362 2.429-13.72 3.835-21.406 3.835-11.538 0-22.335-3.169-31.569-8.685l0.282 0.156zM448 704v-106.667c0-23.564-19.103-42.667-42.667-42.667s-42.667 19.103-42.667 42.667v0 106.667c0 11.782-9.551 21.333-21.333 21.333s-21.333-9.551-21.333-21.333v0-106.667c0-47.128 38.205-85.333 85.333-85.333s85.333 38.205 85.333 85.333v0 106.667c0 11.782-9.551 21.333-21.333 21.333s-21.333-9.551-21.333-21.333v0zM665.6 716.8l-46.933-62.507-46.933 62.507c-3.933 5.205-10.111 8.533-17.067 8.533-11.782 0-21.333-9.551-21.333-21.333 0-4.827 1.603-9.279 4.306-12.854l-0.039 0.054 54.4-72.533-54.4-72.533c-2.664-3.521-4.267-7.973-4.267-12.8 0-11.782 9.551-21.333 21.333-21.333 6.955 0 13.133 3.329 17.028 8.48l0.039 0.054 46.933 62.507 46.933-62.507c3.933-5.205 10.111-8.533 17.067-8.533 11.782 0 21.333 9.551 21.333 21.333 0 4.827-1.603 9.279-4.306 12.854l0.039-0.054-54.4 72.533 54.4 72.533c2.664 3.521 4.267 7.973 4.267 12.8 0 11.782-9.551 21.333-21.333 21.333-6.955 0-13.133-3.329-17.028-8.48l-0.039-0.054zM469.333 469.333h-128c-11.782 0-21.333-9.551-21.333-21.333s9.551-21.333 21.333-21.333v0h128c11.782 0 21.333 9.551 21.333 21.333s-9.551 21.333-21.333 21.333v0zM341.333 256h85.333c11.782 0 21.333 9.551 21.333 21.333s-9.551 21.333-21.333 21.333v0h-85.333c-11.782 0-21.333-9.551-21.333-21.333s9.551-21.333 21.333-21.333v0z" />
<glyph unicode="&#xe910;" glyph-name="location" d="M487.038-50.64c5.564-8.346 14.932-13.36 24.962-13.36s19.398 5.012 24.962 13.36c70.998 106.494 175.572 238.016 248.444 371.778 58.268 106.952 86.594 198.17 86.594 278.862 0 198.504-161.496 360-360 360s-360-161.496-360-360c0-80.692 28.326-171.91 86.594-278.862 72.818-133.66 177.592-265.504 248.444-371.778zM512 900c165.42 0 300-134.58 300-300 0-70.408-25.934-152.236-79.282-250.158-62.814-115.298-152.45-232.256-220.718-330.58-68.258 98.31-157.9 215.276-220.718 330.58-53.348 97.922-79.282 179.75-79.282 250.158 0 165.42 134.58 300 300 300zM512 420c99.252 0 180 80.748 180 180s-80.748 180-180 180-180-80.748-180-180 80.748-180 180-180zM512 720c66.168 0 120-53.832 120-120s-53.832-120-120-120-120 53.832-120 120 53.832 120 120 120z" />
<glyph unicode="&#xe911;" glyph-name="content" d="M307.2 371.2h221.867v-34.133h-221.867zM307.2 456.533h187.733v-34.133h-187.733zM972.8 832h-187.733v68.267c0 9.425-7.642 17.067-17.067 17.067h-512c-9.425 0-17.067-7.642-17.067-17.067v-68.267h-187.733c-28.275 0-51.2-22.925-51.2-51.2v-512c0-28.275 22.925-51.2 51.2-51.2h375.467v-102.4h-153.6c-9.425 0-17.067-7.642-17.067-17.067v-85.333h-34.133v-34.133h580.267v34.133h-34.133v85.333c0 9.425-7.642 17.067-17.067 17.067h-153.6v102.4h375.467c28.275 0 51.2 22.925 51.2 51.2v512c0 28.275-22.925 51.2-51.2 51.2zM972.8 797.867c9.425 0 17.067-7.642 17.067-17.067v-426.667h-204.8v192.342l82.742 98.592c20.717 24.783 21.225 60.692 1.225 86.058-20 25.358-55.033 33.233-83.967 18.867v47.875zM655.175 444.775l-52.292 43.875 153.6 183.025 52.292-43.875zM590.95 454.108l32.275-27.083-38.692-13.35zM841.658 667.017l-10.975-13.058-52.292 43.883 10.975 13.067c12.125 14.442 33.658 16.325 48.092 4.2 14.442-12.117 16.325-33.65 4.2-48.092zM273.067 883.2h477.867v-165l-185.175-220.708c-1.983-2.367-3.3-5.225-3.783-8.275l-15.633-98.292c-0.933-5.908 1.308-11.875 5.9-15.725 4.592-3.842 10.858-5 16.525-3.042l94.067 32.425c2.925 0.992 5.525 2.758 7.508 5.117l80.592 96.092v-202.858h-477.867zM51.2 797.867h187.733v-443.733h-204.8v426.667c0 9.425 7.642 17.067 17.067 17.067zM733.867 12.8h-443.733v68.267h443.733zM563.2 115.2h-102.4v102.4h102.4zM972.8 251.733h-921.6c-9.425 0-17.067 7.642-17.067 17.067v51.2h204.8v-34.133c0-9.425 7.642-17.067 17.067-17.067h512c9.425 0 17.067 7.642 17.067 17.067v34.133h204.8v-51.2c0-9.425-7.642-17.067-17.067-17.067zM921.6 302.933h34.133v-34.133h-34.133zM307.2 849.067h68.267v-34.133h-68.267zM409.6 849.067h290.133v-34.133h-290.133zM307.2 763.733h392.533v-34.133h-392.533zM307.2 678.4h34.133v-34.133h-34.133zM375.467 678.4h34.133v-34.133h-34.133zM443.733 678.4h187.733v-34.133h-187.733zM307.2 593.067h102.4v-34.133h-102.4zM443.733 593.067h119.467v-34.133h-119.467z" />
<glyph unicode="&#xe912;" glyph-name="front-end-programming" d="M912 880h-800c-44.16 0-80-35.84-80-80v-544c0-44.16 35.84-80 80-80h259.36l-46.24-90.4c-7.52-14.88-6.88-32.16 1.76-46.4 8.96-14.56 24.48-23.2 41.76-23.2h286.56c17.28 0 32.8 8.64 41.76 23.2 8.64 14.24 9.44 31.52 1.76 46.4l-46.24 90.4h259.36c44.16 0 80 35.84 80 80v544c0 44.16-35.84 80-80 80zM960 800v-496h-368v544h320c26.4 0 48-21.6 48-48zM112 848h448v-544h-496v496c0 26.4 21.6 48 48 48zM670.24 71.040c3.52-7.040 0.8-12.96-0.64-15.2-1.44-2.4-5.76-7.84-14.4-7.84h-286.56c-8.64 0-12.96 5.6-14.4 7.84-1.28 2.24-4.16 8.16-0.64 15.2l53.6 104.96h209.28l53.6-104.96zM960 256c0-26.4-21.6-48-48-48h-800c-26.4 0-48 21.6-48 48v16h896zM144 576h352c17.6 0 32 14.4 32 32v160c0 17.6-14.4 32-32 32h-352c-17.6 0-32-14.4-32-32v-160c0-17.6 14.4-32 32-32zM144 768h352v-160s-352 0-352 0zM144 352h128c17.6 0 32 14.4 32 32v128c0 17.6-14.4 32-32 32h-128c-17.6 0-32-14.4-32-32v-128c0-17.6 14.4-32 32-32zM144 512h128v-128s-128 0-128 0zM496 544h-128c-17.6 0-32-14.4-32-32v-128c0-17.6 14.4-32 32-32h128c17.6 0 32 14.4 32 32v128c0 17.6-14.4 32-32 32zM368 384v128h128v-128s-128 0-128 0zM896 384h-240c-8.8 0-16-7.2-16-16s7.2-16 16-16h240c8.8 0 16 7.2 16 16s-7.2 16-16 16zM896 464h-240c-8.8 0-16-7.2-16-16s7.2-16 16-16h240c8.8 0 16 7.2 16 16s-7.2 16-16 16zM896 544h-240c-8.8 0-16-7.2-16-16s7.2-16 16-16h240c8.8 0 16 7.2 16 16s-7.2 16-16 16zM838.4 627.2c2.88-2.080 6.24-3.2 9.6-3.2 4.8 0 9.6 2.24 12.8 6.4l48 64c4.32 5.76 4.32 13.44 0 19.2l-48 64c-5.28 7.040-15.36 8.48-22.4 3.2s-8.48-15.36-3.2-22.4l40.8-54.4-40.8-54.4c-5.28-7.040-3.84-17.12 3.2-22.4zM627.2 694.4l48-64c3.2-4.16 8-6.4 12.8-6.4 3.36 0 6.72 1.12 9.6 3.2 7.040 5.28 8.48 15.36 3.2 22.4l-40.8 54.4 40.8 54.4c5.28 7.040 3.84 17.12-3.2 22.4s-17.12 3.84-22.4-3.2l-48-64c-4.32-5.76-4.32-13.44 0-19.2zM748.16 624.48c1.28-0.32 2.56-0.48 3.84-0.48 7.2 0 13.76 4.8 15.52 12.16l32 128c2.080 8.64-3.040 17.28-11.68 19.36-8.64 2.24-17.28-3.040-19.36-11.68l-32-128c-2.080-8.64 3.040-17.28 11.68-19.36z" />
<glyph unicode="&#xe913;" glyph-name="branding" d="M903.94 564.624c8.284 0 15 6.714 15 15v21.44c0 8.286-6.716 15-15 15s-15-6.714-15-15v-21.44c0-8.286 6.716-15 15-15zM888.94 501.010c0-8.286 6.716-15 15-15s15 6.714 15 15v21.44c0 8.286-6.716 15-15 15s-15-6.714-15-15zM120.056 537.45c-8.284 0-15-6.714-15-15v-21.44c0-8.286 6.716-15 15-15s15 6.714 15 15v21.44c0 8.286-6.716 15-15 15zM135.056 601.064c0 8.286-6.716 15-15 15s-15-6.714-15-15v-21.44c0-8.286 6.716-15 15-15s15 6.714 15 15zM523.982 406.432h-23.966c-8.284 0-15-6.714-15-15s6.716-15 15-15h23.966c8.284 0 15 6.714 15 15s-6.716 15-15 15zM675.774 376.432h23.968c8.284 0 15 6.714 15 15s-6.716 15-15 15h-23.968c-8.284 0-15-6.714-15-15s6.716-15 15-15zM763.654 406.432c-8.284 0-15-6.714-15-15s6.716-15 15-15h23.968c8.284 0 15 6.714 15 15s-6.716 15-15 15zM260.342 406.432h-23.968c-8.284 0-15-6.714-15-15s6.716-15 15-15h23.968c8.284 0 15 6.714 15 15s-6.714 15-15 15zM587.894 376.432h23.968c8.284 0 15 6.714 15 15s-6.716 15-15 15h-23.968c-8.284 0-15-6.714-15-15s6.716-15 15-15zM412.136 376.432h23.966c8.284 0 15 6.714 15 15s-6.716 15-15 15h-23.966c-8.284 0-15-6.714-15-15s6.716-15 15-15zM324.256 406.432c-8.284 0-15-6.714-15-15s6.716-15 15-15h23.966c8.284 0 15 6.714 15 15s-6.716 15-15 15zM699.742 725.642h-23.968c-8.284 0-15-6.714-15-15s6.716-15 15-15h23.968c8.284 0 15 6.714 15 15s-6.716 15-15 15zM587.894 695.642h23.968c8.284 0 15 6.714 15 15s-6.716 15-15 15h-23.968c-8.284 0-15-6.714-15-15 0-8.284 6.716-15 15-15zM787.622 695.642c8.284 0 15 6.714 15 15s-6.716 15-15 15h-23.968c-8.284 0-15-6.714-15-15s6.716-15 15-15zM436.102 695.642c8.284 0 15 6.714 15 15s-6.716 15-15 15h-23.966c-8.284 0-15-6.714-15-15s6.716-15 15-15zM324.256 695.642h23.966c8.284 0 15 6.714 15 15s-6.716 15-15 15h-23.966c-8.284 0-15-6.714-15-15 0-8.284 6.716-15 15-15zM260.342 695.642c8.284 0 15 6.714 15 15s-6.716 15-15 15h-23.968c-8.284 0-15-6.714-15-15s6.716-15 15-15zM500.016 695.642h23.966c8.284 0 15 6.714 15 15s-6.716 15-15 15h-23.966c-8.284 0-15-6.714-15-15 0-8.284 6.716-15 15-15zM15 315.982c8.284 0 15 6.714 15 15v469.718h963.998v-150.010c0-8.286 6.716-15 15-15s15 6.714 15 15v266.030c0 23.866-19.414 43.28-43.28 43.28h-656.92c-8.284 0-15-6.714-15-15s6.716-15 15-15h656.918c7.324 0 13.28-5.958 13.28-13.28v-86.020h-963.996v86.020c0 7.322 5.958 13.28 13.28 13.28h210.52c8.284 0 15 6.714 15 15s-6.716 15-15 15h-210.52c-23.866 0-43.28-19.414-43.28-43.28v-585.738c0-8.286 6.716-15 15-15zM553.078 472.434c7.706 3.042 11.486 11.756 8.444 19.46l-51.042 129.3c-2.26 5.728-7.794 9.492-13.952 9.492s-11.692-3.764-13.952-9.492l-51.042-129.3c-3.042-7.706 0.738-16.418 8.444-19.46 7.704-3.040 16.418 0.738 19.46 8.446l8.786 22.256h56.61l8.786-22.256c2.328-5.898 7.978-9.496 13.956-9.496 1.83 0 3.694 0.338 5.502 1.050zM480.066 533.136l16.462 41.702 16.462-41.702zM689.616 471.386c1.504 0 3.028 0.228 4.518 0.7 6.24 1.97 10.48 7.76 10.48 14.302v129.3c0 8.286-6.716 15-15 15s-15-6.714-15-15v-81.83l-63.33 90.206c-3.758 5.358-10.56 7.656-16.796 5.684-6.24-1.97-10.48-7.76-10.48-14.302v-129.058c0-8.286 6.716-15 15-15s15 6.714 15 15v81.588l63.33-90.206c2.862-4.078 7.482-6.384 12.278-6.384zM844.26 551.038c0 47.64-27.012 79.65-67.214 79.65h-36.62c-3.984 0-7.804-1.584-10.618-4.404s-4.39-6.642-4.382-10.626l0.262-129.3c0.008-3.982 1.6-7.798 4.424-10.606 2.812-2.794 6.614-4.364 10.576-4.364h0.056c1.106 0.004 27.212 0.104 37.636 0.288 38.174 0.664 65.88 34.042 65.88 79.362zM777.854 501.67c-5.078-0.090-14.236-0.16-22.198-0.208l-0.202 99.224h21.59c27.438 0 37.214-25.648 37.214-49.65 0.002-33.662-18.282-49.048-36.404-49.366zM269.262 560.746c4.908 7.18 7.784 15.854 7.784 25.19 0 24.676-20.076 44.752-44.752 44.752h-37.558c-8.284 0-15-6.714-15-15v-129.3c0-3.99 1.59-7.814 4.416-10.63 2.812-2.798 6.618-4.37 10.582-4.37h0.066c0.002 0 34.534 0.152 44.052 0.152 27.462 0 49.804 22.342 49.804 49.804 0.002 16.020-7.608 30.286-19.394 39.402zM232.296 600.688c8.134 0 14.752-6.618 14.752-14.752s-6.618-14.754-14.752-14.754c-2.76 0-22.558-0.036-22.558-0.036v29.54h22.558zM238.854 501.54c-5.34 0-18.532-0.046-29.118-0.090v39.664c2.904 0.012 29.118 0.034 29.118 0.034 10.92 0 19.804-8.882 19.804-19.802s-8.884-19.806-19.804-19.806zM394.644 471.388c3.52 0 7.054 1.232 9.904 3.74 6.218 5.472 6.824 14.952 1.35 21.17l-34.090 38.734c21.734 5.426 37.83 24.464 37.83 47.054 0 26.8-22.658 48.604-50.506 48.604h-34.36c-8.28 0-14.996-6.71-15-14.99l-0.042-129.31c0-8.286 6.716-15 15-15s15 6.714 15 15v39.682l43.648-49.592c2.964-3.372 7.104-5.092 11.266-5.092zM339.762 600.688h19.37c11.116 0 20.506-8.52 20.506-18.604 0-10.086-9.39-18.606-20.506-18.606-4.476 0-12.316-0.034-19.392-0.066zM959.346 738.928c0 14.956-12.166 27.122-27.122 27.122h-56.57c-14.956 0-27.122-12.166-27.122-27.122v-13.586c-6.846-1.39-12-7.442-12-14.698s5.154-13.308 12-14.698v-13.586c0-14.956 12.166-27.122 27.122-27.122h13.586c1.39-6.848 7.442-12 14.698-12s13.308 5.152 14.698 12h13.586c14.956 0 27.122 12.166 27.122 27.122v56.568zM929.346 685.236h-50.814v25.386c0 0.006 0 0.012 0 0.020s0 0.012 0 0.020v25.386h50.814zM148.342 766.048h-56.57c-14.956 0-27.122-12.166-27.122-27.122v-56.57c0-14.956 12.166-27.122 27.122-27.122h13.586c1.39-6.848 7.442-12 14.698-12s13.308 5.152 14.698 12h13.586c14.956 0 27.122 12.166 27.122 27.122v13.586c6.846 1.39 12 7.442 12 14.698s-5.154 13.31-12 14.698v13.586c0.002 14.958-12.166 27.124-27.12 27.124zM145.464 685.236h-50.814v50.812h50.814zM875.656 336.024h56.57c14.956 0 27.122 12.168 27.122 27.122v56.568c0 14.956-12.166 27.122-27.122 27.122h-13.586c-1.39 6.848-7.442 12-14.698 12s-13.308-5.152-14.698-12h-13.586c-14.956 0-27.122-12.168-27.122-27.122v-13.584c-6.846-1.39-12-7.442-12-14.698s5.154-13.308 12-14.698v-13.586c-0.002-14.956 12.164-27.124 27.12-27.124zM929.346 416.838v-50.814h-50.814v25.388c0 0.006 0 0.012 0 0.020s0 0.012 0 0.020v25.386zM64.65 363.148c0-14.956 12.166-27.122 27.122-27.122h56.57c14.956 0 27.122 12.168 27.122 27.122v13.586c6.846 1.39 12 7.442 12 14.698s-5.154 13.31-12 14.698v13.584c0 14.956-12.166 27.122-27.122 27.122h-13.586c-1.39 6.848-7.442 12-14.698 12s-13.308-5.152-14.698-12h-13.586c-14.956 0-27.122-12.168-27.122-27.122v-56.566zM94.65 416.838h50.814v-50.814h-50.814zM1016.272 71.568l-76.122 42.212h40.566c23.866 0 43.28 19.424 43.28 43.3v423.606c0 8.286-6.716 15-15 15s-15-6.714-15-15v-423.604c0-7.334-5.958-13.3-13.28-13.3h-69.084c-1.478 4.444-3.952 8.628-7.482 12.158l-19.998 19.998c-5.654 5.654-13.104 8.836-21.062 9.082l0.684 59.24c0.208 18.072-11 34.53-27.89 40.954l-183.696 69.89c-13.472 5.128-28.762 1.852-38.954-8.34-10.192-10.194-13.466-25.482-8.34-38.954l62.408-164.028h-624.022c-7.324 0-13.28 5.966-13.28 13.3v103.9c0 8.286-6.716 15-15 15s-15-6.714-15-15v-103.9c0-23.876 19.414-43.3 43.28-43.3h637.202c8.046-10.828 20.892-17.562 34.76-17.56 0.164 0 0.332 0.002 0.496 0.004l59.244 0.684c0.244-7.956 3.426-15.406 9.080-21.062l20.002-20c6.076-6.074 14.054-9.112 22.034-9.112 1.664 0 3.326 0.164 4.974 0.43l57.36-103.436c2.74-4.94 7.856-7.726 13.132-7.726 2.46 0 4.958 0.606 7.26 1.884 7.246 4.018 9.862 13.146 5.844 20.392l-58.54 105.564 40.032 40.034 105.564-58.54c2.304-1.28 4.8-1.884 7.26-1.884 5.276 0 10.392 2.788 13.132 7.726 4.016 7.242 1.4 16.37-5.844 20.388zM715.392 126.22c-0.050 0-0.102 0-0.152 0-5.486 0-10.462 3.426-12.416 8.562l-62.136 163.314 66.55-66.55c-8.814-17.712-5.886-39.828 8.854-54.57 9.226-9.224 21.344-13.838 33.464-13.838s24.238 4.614 33.464 13.838c8.938 8.94 13.862 20.822 13.862 33.464 0 12.64-4.922 24.526-13.862 33.464-14.742 14.738-36.856 17.668-54.568 8.854l-66.55 66.55 163.316-62.136c5.182-1.972 8.622-7.024 8.558-12.568l-0.876-75.848-41.664-41.664zM749.556 227.76c4.436 0 8.874-1.69 12.25-5.064 3.274-3.274 5.076-7.624 5.076-12.252s-1.802-8.978-5.074-12.25c-6.754-6.758-17.746-6.756-24.502 0-6.754 6.754-6.754 17.746 0 24.5 3.378 3.378 7.814 5.066 12.25 5.066zM804.934 97.882c0 0.48 0.254 0.736 0.338 0.82l56.020 56.022c0.084 0.086 0.34 0.342 0.822 0.342s0.738-0.256 0.822-0.342l20-20c0.454-0.454 0.454-1.19 0-1.642l-56.020-56.022c-0.456-0.454-1.192-0.454-1.646 0l-19.998 19.998c-0.080 0.084-0.338 0.342-0.338 0.824zM102.732 880.35c0-8.284-6.716-15-15-15s-15 6.716-15 15c0 8.284 6.716 15 15 15s15-6.716 15-15zM171.422 880.35c0-8.284-6.716-15-15-15s-15 6.716-15 15c0 8.284 6.716 15 15 15s15-6.716 15-15zM240.114 880.35c0-8.284-6.716-15-15-15s-15 6.716-15 15c0 8.284 6.716 15 15 15s15-6.716 15-15z" />
<glyph unicode="&#xe914;" glyph-name="chat" d="M771.242 178.458c78.67 71.992 123.478 173.272 123.478 280.324 0 209.532-170.466 380-380 380s-380-170.468-380-380c0-250.376 239.916-434.168 483.016-365.838 190.644-43.806 180.672-42.162 184.984-42.162 14.838 0 24.538 15.644 17.888 28.946zM617.178 133.6c-1.916 0-3.83-0.276-5.684-0.824-218.94-64.896-436.774 100.376-436.774 326.008 0 187.476 152.524 340 340 340s340-152.524 340-340c0-100.512-44.156-195.344-121.146-260.178-7.070-5.956-9.138-15.976-5.006-24.244l37.274-74.542c-151.692 34.82-144.38 33.78-148.664 33.78z" />
<glyph unicode="&#xe915;" glyph-name="briefcase" d="M977.454 401.454c-13.964 0-23.272-9.31-23.272-23.272v-302.546c0-13.964-9.31-23.272-23.272-23.272h-837.82c-13.964 0-23.272 9.31-23.272 23.272v302.546c0 13.964-9.31 23.272-23.272 23.272s-23.272-9.31-23.272-23.272v-302.546c0-39.564 30.254-69.818 69.818-69.818h837.818c39.564 0 69.818 30.254 69.818 69.818v302.546c0 13.964-9.31 23.272-23.274 23.272zM954.182 727.272h-884.364c-39.564 0-69.818-30.254-69.818-69.818v-148.946c0-32.58 23.272-60.508 53.528-67.49l365.382-81.454v-74.472c0-13.964 9.31-23.272 23.272-23.272h139.636c13.964 0 23.272 9.31 23.272 23.272v74.472l365.382 81.454c30.256 6.982 53.528 34.91 53.528 67.492v148.946c0 39.562-30.254 69.816-69.818 69.816zM558.546 308.364h-93.090v93.090h93.090v-93.090zM977.454 508.51c0-11.636-6.982-20.946-18.618-23.272l-353.746-79.128v18.618c0 13.964-9.31 23.272-23.272 23.272h-139.636c-13.964 0-23.272-9.31-23.272-23.272v-18.618l-353.746 79.126c-11.636 2.328-18.618 11.636-18.618 23.272v148.946c0 13.964 9.31 23.272 23.272 23.272h884.364c13.964 0 23.272-9.31 23.272-23.272v-148.944zM628.364 890.182h-232.728c-39.564 0-69.818-30.254-69.818-69.818v-23.272c0-13.964 9.31-23.272 23.272-23.272s23.272 9.31 23.272 23.272v23.272c0 13.964 9.31 23.272 23.272 23.272h232.728c13.964 0 23.272-9.31 23.272-23.272v-23.272c0-13.964 9.31-23.272 23.272-23.272 13.964 0 23.272 9.31 23.272 23.272v23.272c0.004 39.564-30.25 69.818-69.814 69.818z" />
<glyph unicode="&#xe916;" glyph-name="web-design" d="M98.126 66.858c0-8.284 6.716-15 15-15h133.206c8.284 0 15 6.716 15 15s-6.716 15-15 15h-133.206c-8.284 0-15-6.716-15-15zM179.484 525.368h81.648c8.284 0 15 6.716 15 15s-6.716 15-15 15h-81.648c-8.284 0-15-6.716-15-15s6.716-15 15-15zM179.484 445.446h81.648c8.284 0 15 6.716 15 15s-6.716 15-15 15h-81.648c-8.284 0-15-6.716-15-15s6.716-15 15-15zM179.484 365.522h81.648c8.284 0 15 6.716 15 15s-6.716 15-15 15h-81.648c-8.284 0-15-6.716-15-15s6.716-15 15-15zM98.324 525.368h8.57c8.284 0 15 6.716 15 15s-6.716 15-15 15h-8.57c-8.284 0-15-6.716-15-15s6.716-15 15-15zM98.324 445.446h8.57c8.284 0 15 6.716 15 15s-6.716 15-15 15h-8.57c-8.284 0-15-6.716-15-15s6.716-15 15-15zM98.324 365.522h8.57c8.284 0 15 6.716 15 15s-6.716 15-15 15h-8.57c-8.284 0-15-6.716-15-15s6.716-15 15-15zM999.678 746.318h-975.356c-8.284 0-15-6.716-15-15s6.716-15 15-15h975.356c8.286 0 15 6.716 15 15s-6.714 15-15 15zM168.678 959.996c-8.284 0-15-6.716-15-15v-117.518c0-8.284 6.716-15 15-15s15 6.716 15 15v117.518c0 8.284-6.716 15-15 15zM105.98 959.996c-8.284 0-15-6.716-15-15v-80.78c0-5.542-1.58-12.696-13.896-18.898-3.792-1.91-7.91-2.838-12.594-2.838h-0.050c-5.124 0.006-9.576 1.262-13.604 3.836-9.554 6.104-11.512 11.538-11.512 17.816v80.864c0 8.284-6.716 15-15 15s-15-6.716-15-15v-80.866c0-17.846 8.532-32.346 25.36-43.098 8.862-5.662 18.862-8.54 29.716-8.554h0.090c9.35 0 18.128 2.034 26.090 6.044 25.126 12.654 30.4 31.834 30.4 45.694v80.78c0 8.284-6.716 15-15 15zM542.686 890.406l32.372 45.952c4.772 6.772 3.15 16.13-3.624 20.902-6.778 4.772-16.132 3.146-20.9-3.624l-26.182-37.166-26.14 37.158c-4.768 6.776-14.124 8.402-20.9 3.638-6.776-4.766-8.404-14.124-3.638-20.9l32.324-45.948-38.252-54.3c-4.77-6.772-3.148-16.13 3.624-20.902 2.626-1.85 5.64-2.738 8.626-2.738 4.714 0 9.354 2.216 12.276 6.362l32.062 45.514 32.012-45.506c2.92-4.152 7.562-6.37 12.282-6.37 2.98 0 5.992 0.886 8.618 2.732 6.776 4.766 8.404 14.124 3.636 20.9zM432.486 959.996c-8.284 0-15-6.716-15-15v-80.78c0-5.542-1.58-12.696-13.896-18.898-3.792-1.91-7.91-2.838-12.594-2.838h-0.050c-5.126 0.006-9.576 1.26-13.606 3.836-9.554 6.104-11.512 11.538-11.512 17.816v80.864c0 8.284-6.716 15-15 15s-15-6.716-15-15v-80.866c0-17.846 8.534-32.346 25.36-43.096 8.862-5.664 18.86-8.542 29.718-8.556h0.090c9.35 0 18.128 2.034 26.090 6.044 25.126 12.654 30.402 31.832 30.402 45.692v80.782c-0.002 8.284-6.718 15-15.002 15zM292.774 958.812c-7.628 3.226-16.43-0.344-19.658-7.974l-49.694-117.518c-3.226-7.63 0.342-16.43 7.974-19.658 1.908-0.806 3.886-1.188 5.834-1.188 5.846 0 11.402 3.44 13.822 9.162l49.696 117.518c3.226 7.63-0.344 16.432-7.974 19.658zM895.108 929.596h104.57c8.286 0 15 6.716 15 15s-6.714 15-15 15h-104.57c-8.286 0-15-6.716-15-15s6.714-15 15-15zM999.678 901.238h-104.57c-8.286 0-15-6.716-15-15s6.714-15 15-15h104.57c8.286 0 15 6.716 15 15s-6.714 15-15 15zM999.678 842.88h-104.57c-8.286 0-15-6.716-15-15s6.714-15 15-15h104.57c8.286 0 15 6.716 15 15s-6.714 15-15 15zM959.678 649.786h-491.3c-30.328 0-55-24.672-55-55v-603.786c0-30.328 24.672-55 55-55h491.3c30.326 0 55 24.672 55 55v603.786c0 30.326-24.674 55-55 55zM984.678-9c0-13.786-11.214-25-25-25h-491.3c-13.786 0-25 11.214-25 25v603.786c0 13.786 11.214 25 25 25h491.3c13.786 0 25-11.214 25-25zM295.134 197.714h-119.134c-8.284 0-15-6.716-15-15s6.716-15 15-15h119.134c13.786 0 25-11.214 25-25v-151.714c0-13.786-11.214-25-25-25h-230.812c-13.786 0-25 11.214-25 25v151.714c0 13.786 11.214 25 25 25h41.678c8.284 0 15 6.716 15 15s-6.716 15-15 15h-41.678c-30.328 0-55-24.672-55-55v-151.714c0-30.328 24.672-55 55-55h230.812c30.328 0 55 24.672 55 55v151.714c0 30.328-24.672 55-55 55zM295.134 649.786h-230.812c-30.328 0-55-24.672-55-55v-65.208c0-8.284 6.716-15 15-15s15 6.716 15 15v65.208c0 13.786 11.214 25 25 25h230.812c13.786 0 25-11.214 25-25v-268.682c0-13.786-11.214-25-25-25h-230.812c-13.786 0-25 11.214-25 25v133.474c0 8.284-6.716 15-15 15s-15-6.716-15-15v-133.474c0-30.328 24.672-55 55-55h230.812c30.328 0 55 24.672 55 55v268.682c0 30.326-24.672 55-55 55zM714.028 255.83c-58.482 0-109.318 39.552-123.622 96.182-2.028 8.032-10.19 12.898-18.216 10.87-8.032-2.028-12.898-10.184-10.87-18.216 17.672-69.968 80.466-118.836 152.708-118.836 86.85 0 157.508 70.658 157.508 157.508s-70.658 157.508-157.508 157.508c-72.24 0-135.036-48.866-152.708-118.834-2.030-8.032 2.838-16.188 10.87-18.216 8.038-2.030 16.19 2.836 18.216 10.87 14.302 56.63 65.138 96.18 123.622 96.18 70.308 0 127.508-57.2 127.508-127.508s-57.2-127.508-127.508-127.508zM844.274 164.328h-260.49c-34.386 0-62.362-27.976-62.362-62.362s27.974-62.362 62.362-62.362h260.49c34.386 0 62.362 27.976 62.362 62.362s-27.976 62.362-62.362 62.362zM844.274 69.604h-260.49c-17.844 0-32.362 14.518-32.362 32.362s14.518 32.362 32.362 32.362h260.49c17.844 0 32.362-14.518 32.362-32.362s-14.518-32.362-32.362-32.362z" />
<glyph unicode="&#xe917;" glyph-name="chevron" d="M352 96c-8.184 0-16.376 3.128-22.624 9.376-12.504 12.504-12.504 32.752 0 45.248l297.376 297.376-297.376 297.376c-12.504 12.504-12.504 32.752 0 45.248s32.752 12.504 45.248 0l320-320c12.504-12.504 12.504-32.752 0-45.248l-320-320c-6.248-6.248-14.44-9.376-22.624-9.376z" />
<glyph unicode="&#xe918;" glyph-name="right-arrow" d="M1017.232 464.407v0l-232.722 232.724c-8.36 9.762-23.052 10.9-32.813 2.538-9.762-8.36-10.9-23.052-2.538-32.813 0.78-0.91 1.628-1.76 2.538-2.538l192.927-193.161h-921.352c-12.852 0-23.272-10.42-23.272-23.274s10.42-23.272 23.272-23.272h921.352l-192.927-192.927c-9.762-8.36-10.9-23.052-2.538-32.813s23.052-10.9 32.813-2.538c0.91 0.78 1.76 1.628 2.538 2.538l232.724 232.724c9.022 9.074 9.022 23.734-0.002 32.811z" />
</font>
</defs>
</svg>
